<svg id="Layer_1" data-name="Layer 1" xmlns="http://www.w3.org/2000/svg" viewBox="0 0 845.78 285.55"><defs><style>.cls-1,.cls-3,.cls-7,.cls-8{fill:none;}.cls-1,.cls-3,.cls-9{stroke:#2172b9;}.cls-1,.cls-3,.cls-5,.cls-6,.cls-7,.cls-8,.cls-9{stroke-miterlimit:10;}.cls-1,.cls-5,.cls-6,.cls-7,.cls-8,.cls-9{stroke-width:3px;}.cls-2{fill:#2172b9;}.cls-3{stroke-width:5px;}.cls-4,.cls-5,.cls-9{fill:#fff;}.cls-5,.cls-6,.cls-7{stroke:#231f20;}.cls-6{fill:#231f20;}.cls-8{stroke:#fff;}</style></defs><title>flowchart</title><rect class="cls-1" x="1.5" y="113.47" width="158.67" height="70.68" rx="5.1"/><polyline class="cls-1" points="1.5 118.17 80.67 153.5 159.84 118.17"/><rect class="cls-2" x="127.41" y="178.82" width="32.23" height="25.64" rx="12.82"/><path class="cls-3" d="M148.31,330.37v-13.2c0-2.94,4.29-7.55,8.57-7.57s8.57,4.53,8.57,7.57v13.2" transform="translate(-13.36 -147.03)"/><polyline class="cls-4" points="142.05 190.11 142.05 197.57 144.99 197.57 144.99 190.11"/><circle class="cls-4" cx="143.52" cy="189.15" r="3.43"/><line class="cls-1" x1="174.45" y1="153.51" x2="230.17" y2="153.51"/><polygon class="cls-2" points="220.23 165.78 218.19 163.58 229.02 153.51 218.19 143.44 220.23 141.24 233.43 153.51 220.23 165.78"/><line class="cls-1" x1="668.83" y1="69.71" x2="724.56" y2="69.71"/><polygon class="cls-2" points="714.62 81.98 712.57 79.78 723.41 69.71 712.57 59.64 714.62 57.44 727.81 69.71 714.62 81.98"/><line class="cls-1" x1="668.83" y1="221.8" x2="724.56" y2="221.8"/><polygon class="cls-2" points="714.62 234.07 712.57 231.87 723.41 221.8 712.57 211.73 714.62 209.53 727.81 221.8 714.62 234.07"/><rect class="cls-1" x="248.03" y="113.47" width="158.67" height="70.68" rx="5.1"/><polyline class="cls-1" points="248.03 118.17 327.2 153.5 406.37 118.17"/><rect class="cls-2" x="373.94" y="178.82" width="32.23" height="25.64" rx="12.82"/><path class="cls-3" d="M394.85,321.35v-4.18c0-2.94,4.28-7.55,8.57-7.57s8.56,4.53,8.56,7.57v13.2" transform="translate(-13.36 -147.03)"/><polyline class="cls-4" points="388.58 190.11 388.58 197.57 391.52 197.57 391.52 190.11"/><circle class="cls-4" cx="390.05" cy="189.15" r="3.43"/><polyline class="cls-1" points="539.61 77.59 421.31 154.56 539.49 220.22"/><polygon class="cls-2" points="524.59 72.73 524.07 75.69 538.64 78.22 535.05 92.57 537.97 93.29 542.33 75.81 524.59 72.73"/><polygon class="cls-2" points="524.84 226.12 524.12 223.2 538.48 219.66 533.9 205.59 536.76 204.67 542.33 221.8 524.84 226.12"/><rect class="cls-5" x="557.48" y="7.46" width="96.2" height="124.5"/><rect class="cls-6" x="557.48" y="159.55" width="96.2" height="124.5"/><line class="cls-7" x1="570.82" y1="23.46" x2="640.78" y2="23.46"/><line class="cls-7" x1="570.82" y1="51.54" x2="640.78" y2="51.54"/><line class="cls-7" x1="570.82" y1="60.9" x2="635.38" y2="60.9"/><line class="cls-7" x1="570.82" y1="32.82" x2="640.78" y2="32.82"/><line class="cls-7" x1="570.82" y1="70.27" x2="640.78" y2="70.27"/><line class="cls-7" x1="570.82" y1="79.63" x2="640.78" y2="79.63"/><line class="cls-7" x1="570.82" y1="88.99" x2="640.78" y2="88.99"/><line class="cls-7" x1="570.82" y1="98.35" x2="640.78" y2="98.35"/><line class="cls-7" x1="570.82" y1="107.71" x2="640.78" y2="107.71"/><line class="cls-7" x1="570.82" y1="42.18" x2="628.92" y2="42.18"/><line class="cls-7" x1="570.82" y1="117.07" x2="628.92" y2="117.07"/><line class="cls-8" x1="570.82" y1="174.69" x2="640.78" y2="174.69"/><line class="cls-8" x1="570.82" y1="202.78" x2="640.78" y2="202.78"/><line class="cls-8" x1="570.82" y1="212.14" x2="635.38" y2="212.14"/><line class="cls-8" x1="570.82" y1="184.05" x2="640.78" y2="184.05"/><line class="cls-8" x1="570.82" y1="221.5" x2="640.78" y2="221.5"/><line class="cls-8" x1="570.82" y1="230.86" x2="640.78" y2="230.86"/><line class="cls-8" x1="570.82" y1="240.22" x2="640.78" y2="240.22"/><line class="cls-8" x1="570.82" y1="249.59" x2="640.78" y2="249.59"/><line class="cls-8" x1="570.82" y1="258.95" x2="640.78" y2="258.95"/><line class="cls-8" x1="570.82" y1="193.41" x2="628.92" y2="193.41"/><line class="cls-8" x1="570.82" y1="268.31" x2="628.92" y2="268.31"/><path class="cls-1" d="M820.46,360.47,806.8,419.76s-4.49,1.89-17.79,1.89-17.44-1.89-17.44-1.89l-14-59.29a199.92,199.92,0,0,0,62.91,0Z" transform="translate(-13.36 -147.03)"/><ellipse class="cls-1" cx="775.63" cy="210.43" rx="32.67" ry="5.74"/><ellipse class="cls-1" cx="797" cy="333.51" rx="3.9" ry="32.67" transform="translate(124.68 745.24) rotate(-63)"/><path class="cls-1" d="M767.89,318.68s7.19-8.55,34.05,5.14,24.17,24.52,24.17,24.52" transform="translate(-13.36 -147.03)"/><polyline class="cls-1" points="782.22 173.54 784.84 168.38 797.57 174.87 794.94 180.03"/><path class="cls-1" d="M857.64,229.89l-37.18,22L765.8,177.48s37.46-28.95,60.37-28.95c31.47,0,31.47,23.73,31.47,23.73Z" transform="translate(-13.36 -147.03)"/><path class="cls-9" d="M820.46,251.85H757.55V194.22s0-23.73,31.44-23.73,31.47,23.73,31.47,23.73Z" transform="translate(-13.36 -147.03)"/><polygon class="cls-2" points="811.58 52.84 815.15 51.56 815.15 18.75 821.15 16.46 821.15 5.97 811.58 9.44 811.58 52.84"/><rect class="cls-1" x="753.74" y="46.27" width="39.81" height="4.15"/></svg>